<svg xmlns="http://www.w3.org/2000/svg" viewBox="0 0 437.25 324.12">
  <title>アセット 2</title>
  <g id="レイヤー_2" data-name="レイヤー 2">
    <g id="画像">
      <path d="M134.1,213c27.85-22.11,42.45-62.78,40.82-90.5-1.78-30.27-17.55-55.62-56.61-51.5,1.23,17.78-8.46,41.79-35.72,71.94A263.39,263.39,0,0,1,41,180.27c-12.87,9-25.74,15-41,17C31.65,207.47,48.91,228,75.73,230.92,93.08,232.83,114.62,228.46,134.1,213Zm227.42,17.92c26.82-2.95,44.08-23.45,75.73-33.64-15.25-2-28.12-8-41-17a263.39,263.39,0,0,1-41.6-37.33c-14.87-16.45-24.51-31.07-30-43.84-.33-.79-.64-1.59-1-2.42-4.61-12.38.05-16.93,11.63-20.49,1.75-.54,3.41-1.09,5-1.67a61.34,61.34,0,0,1,10.78,5.9c9.25,6.33,13.37,12,13.37,17.52,0,5.85-6.39,10.52-11.47,12.78,16.95,3.18,36.41-.49,44.76-10.31,7-8.21,2-20-13-27.63a75.2,75.2,0,0,0-29.22-8.24,24.16,24.16,0,0,0,1.79-2.69c4.39-7.62-1.91-22.27-27.95-29.74a78.28,78.28,0,0,0-29.8-2.84C283.6,14.51,256.26,0,218.62,0c-50,0-81.87,25.64-93,43.41,21-3.83,47,1.92,60.76,19.84,8.84,11.5,15.48,27.12,17.84,44.51,3.86,28.49-7.53,81.47-28.75,107.17-14.95,18.11-33.87,34.34-60,38.43,23.1,8.08,39.08,22.47,54.65,40.72,14.4,16.88,31.64,30,46.48,30,23.26,0,51.5-31.54,56.64-60.41,2.68-15.07.57-27.62-6.49-43.93-4.71-10.9-10.45-21.43-16.17-33a204.83,204.83,0,0,1-16.11-47.21c-2.21-11.27-2.66-23.19-1.49-31.84,2.36-17.39,9-33,17.84-44.51h0c11.79-15.33,32.49-21.76,51.4-20.89l1.24.56c9.25,4.25,15.7,11,17.08,16.29,1.7,6.49-3.46,10.77-13,11.43-30.8,1.53-43.65,24.71-45.24,51.86-1.63,27.72,13,68.39,40.82,90.5C322.63,228.46,344.17,232.83,361.52,230.92Z" style="fill: #fff;opacity: 0.2"/>
    </g>
  </g>
</svg>
