<svg xmlns="http://www.w3.org/2000/svg" viewBox="0 0 70.2 19.41">
  <title>アセット 3</title>
  <g id="レイヤー_2" data-name="レイヤー 2">
    <g id="ヘッダー_アイコン" data-name="ヘッダー・アイコン">
      <path d="M13.37,4.76a26.1,26.1,0,0,0-8.25.66C2.6,5.93.54,5.48.27,4.56A4.4,4.4,0,0,0,1.36,9.32a4.57,4.57,0,0,0,3.41.94A22.49,22.49,0,0,0,9,9.49c1.64-.41,2.58-.35,3-.13a.41.41,0,0,1,.23.55,6.48,6.48,0,0,1-2.33,2.45,15.29,15.29,0,0,1-6.21,2.83,10.43,10.43,0,0,1,2.84,2.28,2.29,2.29,0,0,0,2.79.31,16.92,16.92,0,0,0,5.52-3.93c1.92-2,2.85-3.84,2.85-5.38C17.71,6.36,16.16,5.17,13.37,4.76Zm15.92,8a7,7,0,0,0,2.44-5.42c-.1-1.82-1.05-3.34-3.39-3.09.08,1.07-.5,2.5-2.13,4.31a15.28,15.28,0,0,1-2.5,2.23,5.19,5.19,0,0,1-2.45,1c1.89.61,2.93,1.84,4.53,2A4.86,4.86,0,0,0,29.29,12.76ZM8.27,2.33c.62.27.72.64.47.94A2.83,2.83,0,0,1,7.63,4a21.23,21.23,0,0,0,6-.44c1-.26,1.49-.56,1.55-1.08.09-.68-1-1.81-4.45-2.32C7.89-.3,4.39.46,3,1.58A13,13,0,0,1,8.27,2.33Zm61.5,3.53a4.27,4.27,0,0,0-3.52-2A16.4,16.4,0,0,0,59.73,5l-.8.27c-.57-1.63-.86-2.93-.55-3.14s1.08,0,2.11.44a14.18,14.18,0,0,0,2.43.77c1.37.29,2.39.13,2.76-.27s.22-.86-.2-1.45C64.83.71,63.06-.51,59.91.22c1.35.17,2.37,1,2.35,1.41s-.55.38-2.14-.14A22.29,22.29,0,0,0,57.76.77a1.93,1.93,0,0,0-1.86.29c-.5.54-.66,1.57-.45,3.52.06.57.14,1.13.24,1.69-1,.29-3.12.41-3.76-.68a5.21,5.21,0,0,0,.94,4.1A3.48,3.48,0,0,0,56,11.13,7.09,7.09,0,0,0,57,11l.12.36c.91,2.56,2.17,5.24,3.39,6.17a2.36,2.36,0,0,0,3,.05,11.66,11.66,0,0,1,2.79-1.45,10.35,10.35,0,0,1-4.65-4.63c-.31-.55-.63-1.19-1-1.88a22.08,22.08,0,0,1,2.32-.8c1.51-.42,2.71-.29,3.09.28s-1.28,1.57-2.9,1.34a5.28,5.28,0,0,0,3.39.92A4.39,4.39,0,0,0,69.91,9,3.71,3.71,0,0,0,69.77,5.86Zm-26.86,8c1.6-.18,2.64-1.41,4.53-2a5.19,5.19,0,0,1-2.45-1A14.86,14.86,0,0,1,42.5,8.56a10,10,0,0,1-1.8-2.63l-.06-.14c-.27-.74,0-1,.7-1.23l.3-.1a3.38,3.38,0,0,1,.64.36c.56.37.81.72.81,1s-.39.63-.69.77A3,3,0,0,0,45.08,6c.42-.49.12-1.2-.78-1.65a4.6,4.6,0,0,0-1.75-.5l.11-.16c.26-.45-.12-1.33-1.68-1.78a4.94,4.94,0,0,0-1.78-.17A7.1,7.1,0,0,0,34.35,0a6.62,6.62,0,0,0-5.57,2.6,3.8,3.8,0,0,1,3.64,1.19,5.64,5.64,0,0,1,1.07,2.66,10.14,10.14,0,0,1-1.72,6.42,5.85,5.85,0,0,1-3.6,2.3,7.57,7.57,0,0,1,3.28,2.44,4.34,4.34,0,0,0,2.78,1.8c1.39,0,3.08-1.89,3.39-3.62a4.22,4.22,0,0,0-.39-2.63c-.28-.65-.62-1.28-1-2a12.38,12.38,0,0,1-1-2.83,6.35,6.35,0,0,1-.09-1.91,5.64,5.64,0,0,1,1.07-2.66h0a3.65,3.65,0,0,1,3.08-1.25l.07,0a1.77,1.77,0,0,1,1,1c.11.38-.2.64-.77.68-1.85.09-2.62,1.48-2.71,3.11a7.08,7.08,0,0,0,2.44,5.42A4.86,4.86,0,0,0,42.91,13.83Z" style="fill: #fff"/>
    </g>
  </g>
</svg>
